PathFileType	4	(X/Y/Z)	RBDS018static.trc
DataRate	CameraRate	NumFrames	NumMarkers	Units	OrigDataRate	OrigDataStartFrame	OrigNumFrames
150.000000	150.000000	4	48	mm	150.000000	75	150
Frame#	Time	L.Ankle			L.Ankle.Medial			L.ASIS			L.GTR			L.Heel.Bottom			L.Heel.Lateral			L.Heel.Top			L.HF			L.Iliac.Crest			L.Knee			L.Knee.Medial			L.MT1			L.MT2			L.MT5			L.PSIS			L.Shank.Bottom.Lateral			L.Shank.Bottom.Medial			L.Shank.Top.Lateral			L.Shank.Top.Medial			L.Thigh.Bottom.Lateral			L.Thigh.Bottom.Medial			L.Thigh.Top.Lateral			L.Thigh.Top.Medial			L.TT			R.Ankle			R.Ankle.Medial			R.ASIS			R.GTR			R.Heel.Bottom			R.Heel.Lateral			R.Heel.Top			R.HF			R.Iliac.Crest			R.Knee			R.Knee.Medial			R.MT1			R.MT2			R.MT5			R.PSIS			R.Shank.Bottom.Lateral			R.Shank.Bottom.Medial			R.Shank.Top.Lateral			R.Shank.Top.Medial			R.Thigh.Bottom.Lateral			R.Thigh.Bottom.Medial			R.Thigh.Top.Lateral			R.Thigh.Top.Medial			R.TT			
		X1	Y1	Z1	X2	Y2	Z2	X3	Y3	Z3	X4	Y4	Z4	X5	Y5	Z5	X6	Y6	Z6	X7	Y7	Z7	X8	Y8	Z8	X9	Y9	Z9	X10	Y10	Z10	X11	Y11	Z11	X12	Y12	Z12	X13	Y13	Z13	X14	Y14	Z14	X15	Y15	Z15	X16	Y16	Z16	X17	Y17	Z17	X18	Y18	Z18	X19	Y19	Z19	X20	Y20	Z20	X21	Y21	Z21	X22	Y22	Z22	X23	Y23	Z23	X24	Y24	Z24	X25	Y25	Z25	X26	Y26	Z26	X27	Y27	Z27	X28	Y28	Z28	X29	Y29	Z29	X30	Y30	Z30	X31	Y31	Z31	X32	Y32	Z32	X33	Y33	Z33	X34	Y34	Z34	X35	Y35	Z35	X36	Y36	Z36	X37	Y37	Z37	X38	Y38	Z38	X39	Y39	Z39	X40	Y40	Z40	X41	Y41	Z41	X42	Y42	Z42	X43	Y43	Z43	X44	Y44	Z44	X45	Y45	Z45	X46	Y46	Z46	X47	Y47	Z47	X48	Y48	Z48	

76	0.5	710.9197387695313	105.5086135864258	1044.281616210938	737.9063720703125	116.4371185302734	1127.972412109375	857.43798828125	1074.289794921875	1128.30078125	794.1441650390625	971.060791015625	1048.89208984375	641.0568237304688	42.07944107055664	1087.295288085938	671.8414916992188	53.99695205688477	1040.949829101563	650.7865600585938	91.87506103515625	1085.177368164063	733.2718505859375	497.8881530761719	1031.203002929688	780.9907836914063	1141.5224609375	1081.486328125	746.458984375	565.059814453125	1042.571044921875	746.6953735351563	531.3006591796875	1170.5087890625	863.5757446289063	56.39097595214844	1128.287353515625	874.0823364257813	69.47016906738281	1074.661743164063	839.4684448242188	54.06707382202148	1014.84033203125	678.81201171875	1080.161499023438	1182.558959960938	689.694580078125	202.5117340087891	1034.495849609375	660.0176391601563	201.5338745117188	1076.372924804688	679.8432006835938	282.3026428222656	1024.553833007813	650.349853515625	285.6135864257813	1068.835327148438	747.8110961914063	675.442138671875	1032.72216796875	691.0518798828125	681.1013793945313	1079.0244140625	753.7760009765625	784.8992309570313	1028.310180664063	700.58251953125	789.8892211914063	1073.6123046875	790.9202880859375	463.8140563964844	1086.484497070313	710.2298583984375	106.9582290649414	1414.5556640625	733.1635131835938	123.425422668457	1330.679931640625	851.9480590820313	1076.017456054688	1362.1552734375	789.5864868164063	970.566650390625	1428.1845703125	639.6185302734375	42.89994430541992	1374.472900390625	662.69580078125	59.85567092895508	1410.506225585938	650.9462280273438	92.80367279052734	1373.453369140625	742.331298828125	490.6525573730469	1438.020385742188	776.8076782226563	1143.078002929688	1387.771362304688	743.626708984375	555.0874633789063	1431.658203125	742.3892211914063	533.2916870117188	1299.7421875	861.5484008789063	59.84969329833984	1326.354736328125	875.0452270507813	69.60527801513672	1377.288940429688	838.1704711914063	55.8808479309082	1437.683227539063	677.1492919921875	1084.27978515625	1291.671020507813	705.9385375976563	211.5947723388672	1436.156860351563	662.5635986328125	214.6626281738281	1400.950073242188	699.4386596679688	291.8937377929688	1449.16064453125	658.3355712890625	293.9237976074219	1413.998779296875	749.168212890625	668.6705932617188	1443.170043945313	689.9847412109375	674.4279174804688	1400.616455078125	753.5218505859375	779.2788696289063	1448.148803710938	698.152099609375	783.938232421875	1408.072021484375	795.341552734375	468.2377319335938	1387.35205078125	
77	0.5066666666666667	710.9230346679688	105.5099945068359	1044.272338867188	737.908203125	116.4423828125	1127.970581054688	857.39208984375	1074.30419921875	1128.267700195313	794.0693969726563	971.0824584960938	1048.86767578125	641.0536499023438	42.08168792724609	1087.2939453125	671.8424682617188	53.99551773071289	1040.946655273438	650.7744140625	91.87659454345703	1085.182373046875	733.2470092773438	497.8915710449219	1031.203002929688	780.9285278320313	1141.56005859375	1081.454223632813	746.4146728515625	565.0626831054688	1042.55712890625	746.6934204101563	531.3011474609375	1170.498046875	863.5728759765625	56.38490676879883	1128.290405273438	874.0861206054688	69.46844482421875	1074.671264648438	839.4645385742188	54.06336212158203	1014.841369628906	678.7666015625	1080.154541015625	1182.551147460938	689.685546875	202.5060424804688	1034.496826171875	660.0034790039063	201.5321960449219	1076.37744140625	679.8213500976563	282.3032836914063	1024.560424804688	650.3304443359375	285.6079711914063	1068.836791992188	747.7157592773438	675.456787109375	1032.709594726563	691.0064086914063	681.1095581054688	1079.058471679688	753.7116088867188	784.9041137695313	1028.307739257813	700.53076171875	789.8865356445313	1073.638793945313	790.8859252929688	463.808837890625	1086.462280273438	710.242919921875	106.9564971923828	1414.549682617188	733.177978515625	123.4153747558594	1330.689819335938	851.9421997070313	1076.020141601563	1362.112670898438	789.5878295898438	970.5769653320313	1428.161010742188	639.6207275390625	42.90319442749023	1374.474243164063	662.6947631835938	59.85771179199219	1410.507446289063	650.952880859375	92.81227874755859	1373.46240234375	742.3342895507813	490.6590270996094	1438.009887695313	776.81787109375	1143.083740234375	1387.7490234375	743.6287841796875	555.097900390625	1431.640869140625	742.3718872070313	533.3017578125	1299.730834960938	861.5533447265625	59.85910415649414	1326.367797851563	875.0438232421875	69.59707641601563	1377.286010742188	838.1600952148438	55.90946578979492	1437.7177734375	677.1294555664063	1084.280029296875	1291.665649414063	705.9487915039063	211.5910034179688	1436.15869140625	662.569580078125	214.6606292724609	1400.957763671875	699.4544677734375	291.8979187011719	1449.16162109375	658.344970703125	293.9263305664063	1414.00146484375	749.17431640625	668.675048828125	1443.154052734375	689.9818115234375	674.4403076171875	1400.610961914063	753.53125	779.2769775390625	1448.1376953125	698.151611328125	783.9559326171875	1408.064086914063	795.3287963867188	468.2327270507813	1387.3310546875	
78	0.5133333333333334	710.917724609375	105.5124740600586	1044.278930664063	737.9098510742188	116.4362716674805	1127.977416992188	857.3302001953125	1074.308227539063	1128.2255859375	793.9959716796875	971.0897827148438	1048.842529296875	641.0548095703125	42.07858657836914	1087.291625976563	671.8389892578125	54.00079345703125	1040.962524414063	650.7761840820313	91.87313079833984	1085.190673828125	733.2068481445313	497.934814453125	1031.197998046875	780.873291015625	1141.564697265625	1081.436401367188	746.356201171875	565.07470703125	1042.53662109375	746.6948852539063	531.308837890625	1170.484252929688	863.5635986328125	56.38554000854492	1128.288818359375	874.0750732421875	69.47360992431641	1074.671020507813	839.4573974609375	54.05923461914063	1014.844482421875	678.7220458984375	1080.150390625	1182.544677734375	689.677001953125	202.5077972412109	1034.489868164063	659.9992065429688	201.5191345214844	1076.38330078125	679.8088989257813	282.2903442382813	1024.557861328125	650.3241577148438	285.5877075195313	1068.859008789063	747.645263671875	675.4639282226563	1032.703247070313	690.9603271484375	681.1035766601563	1079.0654296875	753.65234375	784.9205932617188	1028.30712890625	700.4675903320313	789.8806762695313	1073.649291992188	790.8585205078125	463.8223876953125	1086.442260742188	710.2418212890625	106.9670028686523	1414.541137695313	733.1679077148438	123.4220199584961	1330.691650390625	851.9330444335938	1076.033081054688	1362.081176757813	789.593505859375	970.5763549804688	1428.137939453125	639.6141357421875	42.90797805786133	1374.473876953125	662.7021484375	59.86243438720703	1410.508056640625	650.9476928710938	92.81613922119141	1373.455932617188	742.3259887695313	490.6612548828125	1437.986083984375	776.8231811523438	1143.080200195313	1387.7197265625	743.6181640625	555.1038818359375	1431.624755859375	742.3500366210938	533.3235473632813	1299.705444335938	861.5451049804688	59.85388946533203	1326.371826171875	875.04443359375	69.60911560058594	1377.29833984375	838.162353515625	55.87011337280273	1437.691650390625	677.10107421875	1084.270385742188	1291.657470703125	705.9510498046875	211.6015625	1436.159912109375	662.5810546875	214.6660766601563	1400.954833984375	699.4515380859375	291.9034423828125	1449.160400390625	658.345703125	293.9317932128906	1414.005249023438	749.1831665039063	668.6788330078125	1443.130004882813	689.9765625	674.4354858398438	1400.59765625	753.5372924804688	779.2806396484375	1448.117553710938	698.1531372070313	783.9530029296875	1408.048095703125	795.3367309570313	468.2450561523438	1387.31787109375	
79	0.52	710.9171752929688	105.5121841430664	1044.282104492188	737.8993530273438	116.4311065673828	1127.976806640625	857.2867431640625	1074.31982421875	1128.178100585938	793.9208374023438	971.0961303710938	1048.822875976563	641.046875	42.07276916503906	1087.30029296875	671.8345947265625	54.00177001953125	1040.950439453125	650.77490234375	91.87200927734375	1085.182739257813	733.1737060546875	497.8956604003906	1031.181030273438	780.8236083984375	1141.573120117188	1081.410522460938	746.3302001953125	565.0814819335938	1042.515258789063	746.6934814453125	531.3084716796875	1170.469848632813	863.5675048828125	56.39249801635742	1128.285278320313	874.0975952148438	69.47316741943359	1074.667358398438	839.46826171875	54.05785751342773	1014.853881835938	678.6797485351563	1080.140991210938	1182.543090820313	689.6630249023438	202.4985046386719	1034.48876953125	659.991943359375	201.5187225341797	1076.369750976563	679.7932739257813	282.28564453125	1024.55224609375	650.311767578125	285.5777587890625	1068.852172851563	747.5669555664063	675.4653930664063	1032.690673828125	690.9213256835938	681.0833129882813	1079.082153320313	753.5924072265625	784.9095458984375	1028.300659179688	700.4130249023438	789.87158203125	1073.657958984375	790.83642578125	463.8132934570313	1086.433471679688	710.240966796875	106.9665679931641	1414.533569335938	733.1798095703125	123.4199371337891	1330.672485351563	851.9279174804688	1076.03857421875	1362.036010742188	789.591064453125	970.58447265625	1428.120849609375	639.6199340820313	42.89990615844727	1374.47021484375	662.700927734375	59.85777282714844	1410.509887695313	650.9532470703125	92.81217956542969	1373.458374023438	742.3265380859375	490.6684875488281	1437.967651367188	776.8170776367188	1143.070434570313	1387.693603515625	743.61279296875	555.1008911132813	1431.593627929688	742.3378295898438	533.32666015625	1299.686401367188	861.5574340820313	59.85600280761719	1326.362915039063	875.0459594726563	69.60604095458984	1377.289184570313	838.1666259765625	55.87546539306641	1437.688598632813	677.0790405273438	1084.255981445313	1291.655517578125	705.9534912109375	211.6042938232422	1436.154418945313	662.581787109375	214.6651306152344	1400.950805664063	699.4609375	291.9029846191406	1449.151123046875	658.3487548828125	293.9348754882813	1413.990600585938	749.1875	668.6884765625	1443.11767578125	689.98095703125	674.4412231445313	1400.590942382813	753.5338134765625	779.2824096679688	1448.112548828125	698.1468505859375	783.947998046875	1408.032592773438	795.3263549804688	468.2381896972656	1387.2958984375	
